<svg width="503" height="190" viewBox="0 0 503 190" fill="none" xmlns="http://www.w3.org/2000/svg">
<rect width="503" height="190" fill="black"/>
<path d="M169.027 51H61.2779C40.1376 51 23 64.4032 23 80.9369V123.063C23 139.597 40.1376 153 61.2779 153H169.027C190.168 153 207.305 139.597 207.305 123.063V80.9369C207.305 64.4032 190.168 51 169.027 51ZM143.14 104.05L92.7424 122.849C91.3995 123.35 89.8483 122.584 89.8483 121.42V82.6472C89.8483 81.4672 91.4403 80.7024 92.786 81.2358L143.184 101.21C144.682 101.804 144.656 103.484 143.14 104.05Z" fill="#F61C0D"/>
<path d="M221.636 79.4545H228.091L241 101.182H241.545L254.455 79.4545H260.909L244.091 106.818V126H238.455V106.818L221.636 79.4545ZM276.716 126.727C273.564 126.727 270.799 125.977 268.42 124.477C266.057 122.977 264.208 120.879 262.875 118.182C261.557 115.485 260.898 112.333 260.898 108.727C260.898 105.091 261.557 101.917 262.875 99.2045C264.208 96.4924 266.057 94.3864 268.42 92.8864C270.799 91.3864 273.564 90.6364 276.716 90.6364C279.867 90.6364 282.625 91.3864 284.989 92.8864C287.367 94.3864 289.216 96.4924 290.534 99.2045C291.867 101.917 292.534 105.091 292.534 108.727C292.534 112.333 291.867 115.485 290.534 118.182C289.216 120.879 287.367 122.977 284.989 124.477C282.625 125.977 279.867 126.727 276.716 126.727ZM276.716 121.909C279.11 121.909 281.08 121.295 282.625 120.068C284.17 118.841 285.314 117.227 286.057 115.227C286.799 113.227 287.17 111.061 287.17 108.727C287.17 106.394 286.799 104.22 286.057 102.205C285.314 100.189 284.17 98.5606 282.625 97.3182C281.08 96.0758 279.11 95.4545 276.716 95.4545C274.322 95.4545 272.352 96.0758 270.807 97.3182C269.261 98.5606 268.117 100.189 267.375 102.205C266.633 104.22 266.261 106.394 266.261 108.727C266.261 111.061 266.633 113.227 267.375 115.227C268.117 117.227 269.261 118.841 270.807 120.068C272.352 121.295 274.322 121.909 276.716 121.909ZM322.722 111.727V91.0909H328.085V126H322.722V120.091H322.358C321.54 121.864 320.267 123.371 318.54 124.614C316.813 125.841 314.631 126.455 311.994 126.455C309.812 126.455 307.873 125.977 306.176 125.023C304.479 124.053 303.146 122.598 302.176 120.659C301.206 118.705 300.722 116.242 300.722 113.273V91.0909H306.085V112.909C306.085 115.455 306.797 117.485 308.222 119C309.661 120.515 311.494 121.273 313.722 121.273C315.055 121.273 316.411 120.932 317.79 120.25C319.184 119.568 320.35 118.523 321.29 117.114C322.244 115.705 322.722 113.909 322.722 111.727ZM332.841 84.4545V79.4545H367.75V84.4545H353.114V126H347.477V84.4545H332.841ZM392.972 111.727V91.0909H398.335V126H392.972V120.091H392.608C391.79 121.864 390.517 123.371 388.79 124.614C387.063 125.841 384.881 126.455 382.244 126.455C380.062 126.455 378.123 125.977 376.426 125.023C374.729 124.053 373.396 122.598 372.426 120.659C371.456 118.705 370.972 116.242 370.972 113.273V91.0909H376.335V112.909C376.335 115.455 377.047 117.485 378.472 119C379.911 120.515 381.744 121.273 383.972 121.273C385.305 121.273 386.661 120.932 388.04 120.25C389.434 119.568 390.6 118.523 391.54 117.114C392.494 115.705 392.972 113.909 392.972 111.727ZM408.886 126V79.4545H414.25V96.6364H414.705C415.098 96.0303 415.644 95.2576 416.341 94.3182C417.053 93.3636 418.068 92.5152 419.386 91.7727C420.72 91.0152 422.523 90.6364 424.795 90.6364C427.735 90.6364 430.326 91.3712 432.568 92.8409C434.811 94.3106 436.561 96.3939 437.818 99.0909C439.076 101.788 439.705 104.97 439.705 108.636C439.705 112.333 439.076 115.538 437.818 118.25C436.561 120.947 434.818 123.038 432.591 124.523C430.364 125.992 427.795 126.727 424.886 126.727C422.644 126.727 420.848 126.356 419.5 125.614C418.152 124.856 417.114 124 416.386 123.045C415.659 122.076 415.098 121.273 414.705 120.636H414.068V126H408.886ZM414.159 108.545C414.159 111.182 414.545 113.508 415.318 115.523C416.091 117.523 417.22 119.091 418.705 120.227C420.189 121.348 422.008 121.909 424.159 121.909C426.402 121.909 428.273 121.318 429.773 120.136C431.288 118.939 432.424 117.333 433.182 115.318C433.955 113.288 434.341 111.03 434.341 108.545C434.341 106.091 433.962 103.879 433.205 101.909C432.462 99.9242 431.333 98.3561 429.818 97.2045C428.318 96.0379 426.432 95.4545 424.159 95.4545C421.977 95.4545 420.144 96.0076 418.659 97.1136C417.174 98.2045 416.053 99.7348 415.295 101.705C414.538 103.659 414.159 105.939 414.159 108.545ZM462.545 126.727C459.182 126.727 456.28 125.985 453.841 124.5C451.417 123 449.545 120.909 448.227 118.227C446.924 115.53 446.273 112.394 446.273 108.818C446.273 105.242 446.924 102.091 448.227 99.3636C449.545 96.6212 451.379 94.4848 453.727 92.9545C456.091 91.4091 458.848 90.6364 462 90.6364C463.818 90.6364 465.614 90.9394 467.386 91.5455C469.159 92.1515 470.773 93.1364 472.227 94.5C473.682 95.8485 474.841 97.6364 475.705 99.8636C476.568 102.091 477 104.833 477 108.091V110.364H450.091V105.727H471.545C471.545 103.758 471.152 102 470.364 100.455C469.591 98.9091 468.485 97.6894 467.045 96.7955C465.621 95.9015 463.939 95.4545 462 95.4545C459.864 95.4545 458.015 95.9848 456.455 97.0455C454.909 98.0909 453.72 99.4545 452.886 101.136C452.053 102.818 451.636 104.621 451.636 106.545V109.636C451.636 112.273 452.091 114.508 453 116.341C453.924 118.159 455.205 119.545 456.841 120.5C458.477 121.439 460.379 121.909 462.545 121.909C463.955 121.909 465.227 121.712 466.364 121.318C467.515 120.909 468.508 120.303 469.341 119.5C470.174 118.682 470.818 117.667 471.273 116.455L476.455 117.909C475.909 119.667 474.992 121.212 473.705 122.545C472.417 123.864 470.826 124.894 468.932 125.636C467.038 126.364 464.909 126.727 462.545 126.727Z" fill="white"/>
</svg>
